<svg width="100" height="100" xmlns="http://www.w3.org/2000/svg">
  <defs>
    <pattern id="tech" width="50" height="50" patternUnits="userSpaceOnUse">
      <!-- Fondo oscuro -->
      <rect width="50" height="50" fill="#0a0f1f"/>
      <!-- Líneas horizontales y verticales finas -->
      <path d="M 0 10 L 50 10 M 0 20 L 50 20 M 0 30 L 50 30 M 0 40 L 50 40 M 10 0 L 10 50 M 20 0 L 20 50 M 30 0 L 30 50 M 40 0 L 40 50" fill="none" stroke="rgba(59, 130, 246, 0.1)" stroke-width="0.5"/>
      <!-- Puntos en las intersecciones -->
      <circle cx="10" cy="10" r="1" fill="rgba(59, 130, 246, 0.2)"/>
      <circle cx="20" cy="20" r="1" fill="rgba(59, 130, 246, 0.2)"/>
      <circle cx="30" cy="30" r="1" fill="rgba(59, 130, 246, 0.2)"/>
      <circle cx="40" cy="40" r="1" fill="rgba(59, 130, 246, 0.2)"/>
      <circle cx="10" cy="30" r="0.5" fill="rgba(99, 102, 241, 0.15)"/>
      <circle cx="30" cy="10" r="0.5" fill="rgba(99, 102, 241, 0.15)"/>
      <circle cx="20" cy="40" r="0.5" fill="rgba(99, 102, 241, 0.15)"/>
      <circle cx="40" cy="20" r="0.5" fill="rgba(99, 102, 241, 0.15)"/>
    </pattern>
  </defs>
  <rect width="100" height="100" fill="url(#tech)" />
</svg>